HIERARCHY
ROOT Hips
{
	OFFSET -3.958830 18.904000 13.208200
	CHANNELS 6 Xposition Yposition Zposition Zrotation Yrotation Xrotation 
	JOINT LHipJoint
	{
		OFFSET 0.000000 0.000000 0.000000
		CHANNELS 3 Zrotation Yrotation Xrotation
		JOINT LeftUpLeg
		{
			OFFSET 1.800000 -1.400000 0.085000
			CHANNELS 3 Zrotation Yrotation Xrotation
			JOINT LeftLeg
			{
				OFFSET 2.215000 -6.000000 0.000000
				CHANNELS 3 Zrotation Yrotation Xrotation
				JOINT LeftFoot
				{
					OFFSET 2.500000 -6.900000 0.000000
					CHANNELS 3 Zrotation Yrotation Xrotation
					JOINT LeftToeBase
					{
						OFFSET 0.200000 -0.500000 1.950000
						CHANNELS 3 Zrotation Yrotation Xrotation
						End Site
						{
							OFFSET 0.000000 0.000000 0.000000
						}
					}
				}
			}
		}
	}
	JOINT RHipJoint
	{
		OFFSET 0.000000 0.000000 0.000000
		CHANNELS 3 Zrotation Yrotation Xrotation
		JOINT RightUpLeg
		{
			OFFSET -1.800000 -1.400000 0.085000
			CHANNELS 3 Zrotation Yrotation Xrotation
			JOINT RightLeg
			{
				OFFSET -2.215000 -6.000000 0.000000
				CHANNELS 3 Zrotation Yrotation Xrotation
				JOINT RightFoot
				{
					OFFSET -2.500000 -6.900000 0.000000
					CHANNELS 3 Zrotation Yrotation Xrotation
					JOINT RightToeBase
					{
						OFFSET -0.200000 -0.500000 1.950000
						CHANNELS 3 Zrotation Yrotation Xrotation
						End Site
						{
							OFFSET 0.000000 0.000000 0.000000
						}
					}
				}
			}
		}
	}
	JOINT LowerBack
	{
		OFFSET 0.000000 0.000000 0.000000
		CHANNELS 3 Zrotation Yrotation Xrotation
		JOINT Spine
		{
			OFFSET -0.087000 1.940000 -0.288900
			CHANNELS 3 Zrotation Yrotation Xrotation
			JOINT Spine1
			{
				OFFSET 0.000000 1.950000 0.060000
				CHANNELS 3 Zrotation Yrotation Xrotation
				JOINT Neck
				{
					OFFSET 0.000000 0.000000 0.000000
					CHANNELS 3 Zrotation Yrotation Xrotation
					JOINT Neck1
					{
						OFFSET 0.000000 1.600000 0.340000
						CHANNELS 3 Zrotation Yrotation Xrotation
						JOINT Head
						{
							OFFSET 0.000000 1.667000 -0.240000
							CHANNELS 3 Zrotation Yrotation Xrotation
							End Site
							{
								OFFSET 0.000000 0.000000 0.000000
							}
						}
					}
				}
				JOINT LeftShoulder
				{
					OFFSET 0.000000 0.000000 0.000000
					CHANNELS 3 Zrotation Yrotation Xrotation
					JOINT LeftArm
					{
						OFFSET 2.700000 1.550000 -0.730000
						CHANNELS 3 Zrotation Yrotation Xrotation
						JOINT LeftForeArm
						{
							OFFSET 5.450000 0.000000 0.000000
							CHANNELS 3 Zrotation Yrotation Xrotation
							JOINT LeftHand
							{
								OFFSET 3.450000 0.000000 0.000000
								CHANNELS 3 Zrotation Yrotation Xrotation
								JOINT LeftHandIndex1
								{
									OFFSET 0.750000 0.000000 0.000000
									CHANNELS 3 Zrotation Yrotation Xrotation
									End Site
									{
										OFFSET 0.000000 0.000000 0.000000
									}
								}
							}
						}
					}
				}
				JOINT RightShoulder
				{
					OFFSET 0.000000 0.000000 0.000000
					CHANNELS 3 Zrotation Yrotation Xrotation
					JOINT RightArm
					{
						OFFSET -2.700000 1.550000 -0.730000
						CHANNELS 3 Zrotation Yrotation Xrotation
						JOINT RightForeArm
						{
							OFFSET -5.450000 0.000000 0.000000
							CHANNELS 3 Zrotation Yrotation Xrotation
							JOINT RightHand
							{
								OFFSET -3.450000 0.000000 0.000000
								CHANNELS 3 Zrotation Yrotation Xrotation
								JOINT RightHandIndex1
								{
									OFFSET -0.750000 0.000000 0.000000
									CHANNELS 3 Zrotation Yrotation Xrotation
									End Site
									{
										OFFSET 0.000000 0.000000 0.000000
									}
								}
							}
						}
					}
				}
			}
		}
	}
}
MOTION
Frames: 5
Frame Time: 0.016667
0.518030 16.416980 -2.017310 -11.599798 -2.654442 -4.280517 -15.153150 12.092011 1.585746 19.164168 -1.682263 -13.394778 -7.114123 9.100245 23.907212 -0.917380 6.303054 2.450558 0.887430 0.111150 0.731840 18.805586 -7.344596 6.710497 -27.701880 7.560187 -61.231094 17.241107 -38.296810 83.127472 -3.502135 -16.610827 -0.260312 0.258210 0.074740 0.175360 -4.308611 -3.294377 -9.053406 23.600524 -11.803685 32.571451 -8.901864 -4.783087 -0.368585 2.703612 -7.267391 -9.899603 -14.357326 4.061859 27.148938 -1.386600 0.147530 -26.056180 -24.057533 -12.285702 1.616079 -18.179635 -7.004098 -2.441970 -92.202949 -56.527294 49.986269 -3.476713 3.302289 1.194090 -0.071520 0.003930 0.375870 18.527651 14.417257 8.546800 30.917128 -6.420691 -12.279945 35.719710 58.259531 14.897638 1.423445 -1.659955 -0.491690 0.430560 -0.156500 -0.627910 
0.536280 16.380000 -2.042780 -11.766941 -3.918232 -5.207243 -15.174881 12.137048 1.566433 19.570740 -1.368177 -12.392562 -7.395183 9.443590 24.243459 -0.828130 6.438509 2.386860 0.879690 0.108750 0.707550 18.785108 -7.220863 6.824641 -28.269269 8.357068 -61.822645 17.578442 -39.125795 84.389982 -3.606061 -16.896400 -0.302943 0.223420 0.046780 0.193400 -4.254238 -3.438085 -9.122626 23.588330 -12.025278 35.261709 -9.093720 -4.614546 -1.303703 2.904980 -7.575753 -10.334546 -15.334790 4.867921 28.181893 -0.850810 0.346230 -26.515350 -24.572393 -12.947513 1.870169 -17.473195 -6.180066 -2.995430 -90.261160 -56.410054 48.311009 -3.432636 3.345406 1.193750 -0.096240 0.024500 0.369130 18.724152 15.535028 8.920131 30.082446 -6.397205 -12.470327 35.895925 59.043695 15.297981 1.442631 -1.661532 -0.446980 0.388510 -0.151230 -0.612710 
0.581290 16.278970 -2.085770 -11.943326 -5.385195 -5.548221 -15.204911 12.028663 1.512512 19.807817 -1.130660 -12.309929 -7.863969 10.054048 25.485005 -0.765267 6.710736 2.289157 0.860700 0.094290 0.681560 18.806382 -6.929322 7.122957 -30.565949 8.651744 -64.271246 18.946947 -41.581936 86.044548 -3.777388 -17.433798 -0.391824 0.211200 0.057560 0.183740 -4.260173 -3.518999 -9.222430 24.133210 -12.832283 38.410276 -9.819545 -4.768154 -2.835192 3.045480 -8.394681 -10.644269 -16.937184 5.944387 27.585839 -0.031060 0.094270 -27.239630 -25.658900 -13.450338 2.030401 -16.048697 -4.651581 -3.601337 -87.620922 -56.032111 45.955944 -3.392149 3.345122 1.199270 -0.114240 0.027160 0.367870 19.640947 16.704829 9.131421 28.001396 -6.031290 -12.269703 37.210279 60.753861 16.696983 1.466585 -1.650424 -0.448900 0.410150 -0.135680 -0.595290 
0.630960 16.170100 -2.126320 -12.222643 -8.379198 -6.244468 -15.264366 11.939221 1.589030 21.010716 -0.614301 -11.797980 -9.550904 11.464093 27.043239 -0.683307 7.346322 2.067256 0.836280 0.066030 0.687550 18.782326 -6.639886 7.286372 -31.694647 10.372250 -66.081160 19.578889 -42.778409 87.678193 -3.913919 -17.843313 -0.451831 0.215310 0.071620 0.144320 -4.195231 -3.653195 -9.336948 24.100500 -13.198938 42.835466 -10.128776 -4.643167 -4.738200 3.233432 -9.225006 -10.701018 -18.620241 7.273977 27.037288 -0.150030 0.145210 -28.707370 -27.701722 -13.797643 2.011488 -14.560916 -2.867231 -4.224649 -82.792024 -54.877435 41.534714 -3.345399 3.274707 1.237690 -0.133890 0.029910 0.353350 21.405079 17.892854 9.060001 24.408635 -4.853800 -11.772851 38.365836 62.161459 18.083217 1.486472 -1.597783 -0.500150 0.485960 -0.113780 -0.605740 
0.669450 16.058740 -2.162770 -11.715667 -11.252961 -7.300852 -15.337843 11.986561 1.730308 21.671443 -0.074113 -10.794276 -11.496230 12.791243 27.934897 -0.560336 7.895735 1.895154 0.822290 0.044110 0.725140 18.704296 -6.465037 7.295460 -32.708784 11.941246 -65.341390 21.590544 -42.879339 86.412026 -3.911414 -17.725489 -0.419484 0.208310 0.070500 0.113630 -4.028136 -3.929192 -9.440812 22.377944 -12.449875 47.307918 -9.652552 -4.416430 -6.908712 3.336110 -9.337251 -10.556601 -19.183674 8.130174 27.953545 -0.744270 0.447600 -29.285890 -30.503584 -14.303063 2.014699 -13.203387 -1.250653 -4.636659 -75.348559 -52.007621 34.593440 -3.266787 3.220655 1.262190 -0.149610 0.041630 0.336330 24.046422 18.907395 8.781727 21.092772 -3.284989 -11.410665 36.987137 62.101357 17.647561 1.512637 -1.557819 -0.531440 0.535340 -0.116360 -0.618540 
